<svg xmlns="http://www.w3.org/2000/svg" width="980" height="400" viewBox="0 0 980 400">
  <defs>
    <marker id="arch4_arrow" markerWidth="10" markerHeight="10" refX="8" refY="3" orient="auto" markerUnits="strokeWidth">
      <path d="M0,0 L0,6 L9,3 z" fill="#333"/>
    </marker>
    <style>
      .arch4_box { fill:#f7f9fc; stroke:#2f3a4a; stroke-width:1.3; }
      .arch4_head { fill:#e8f3ff; }
      .arch4_text { font-family:-apple-system,BlinkMacSystemFont,Segoe UI,sans-serif; font-size:14px; fill:#1d2630; }
      .arch4_title { font-size:16px; font-weight:600; }
      .arch4_line { stroke:#333; stroke-width:1.4; marker-end:url(#arch4_arrow); fill:none; }
    </style>
  </defs>
  <rect x="55" y="40" width="230" height="65" rx="8" class="arch4_box arch4_head"/>
  <text x="80" y="80" class="arch4_text arch4_title">TERMINAL_SESSION</text>
  <rect x="345" y="40" width="260" height="65" rx="8" class="arch4_box"/>
  <text x="370" y="80" class="arch4_text">createTermuxSession()</text>
  <rect x="665" y="40" width="230" height="65" rx="8" class="arch4_box"/>
  <text x="690" y="80" class="arch4_text">TermuxSession.execute()</text>

  <rect x="345" y="145" width="260" height="65" rx="8" class="arch4_box"/>
  <text x="370" y="185" class="arch4_text">new TerminalSession(...)</text>
  <rect x="665" y="145" width="230" height="65" rx="8" class="arch4_box"/>
  <text x="690" y="185" class="arch4_text">JNI.createSubprocess()</text>
  <rect x="345" y="250" width="260" height="65" rx="8" class="arch4_box"/>
  <text x="370" y="290" class="arch4_text">/dev/ptmx + fork + execvp</text>

  <rect x="55" y="250" width="230" height="65" rx="8" class="arch4_box arch4_head"/>
  <text x="80" y="290" class="arch4_text arch4_title">APP_SHELL</text>
  <rect x="665" y="250" width="230" height="65" rx="8" class="arch4_box"/>
  <text x="690" y="278" class="arch4_text">createTermuxTask()</text>
  <text x="690" y="300" class="arch4_text">AppShell.execute()</text>
  <rect x="665" y="330" width="230" height="50" rx="8" class="arch4_box"/>
  <text x="690" y="361" class="arch4_text">Runtime.exec(...)</text>

  <path d="M285 72 L345 72" class="arch4_line"/>
  <path d="M605 72 L665 72" class="arch4_line"/>
  <path d="M780 105 C780 135 620 130 560 145" class="arch4_line"/>
  <path d="M605 177 L665 177" class="arch4_line"/>
  <path d="M780 210 C780 240 620 235 560 250" class="arch4_line"/>
  <path d="M285 282 L345 282" class="arch4_line"/>
  <path d="M605 282 L665 282" class="arch4_line"/>
  <path d="M780 315 L780 330" class="arch4_line"/>
</svg>
