<svg xmlns="http://www.w3.org/2000/svg" width="980" height="220" viewBox="0 0 980 220">
  <defs>
    <marker id="arch5_arrow" markerWidth="10" markerHeight="10" refX="8" refY="3" orient="auto" markerUnits="strokeWidth">
      <path d="M0,0 L0,6 L9,3 z" fill="#333"/>
    </marker>
    <style>
      .arch5_box { fill:#f7f9fc; stroke:#2f3a4a; stroke-width:1.3; }
      .arch5_head { fill:#e8f3ff; }
      .arch5_text { font-family:-apple-system,BlinkMacSystemFont,Segoe UI,sans-serif; font-size:14px; fill:#1d2630; }
      .arch5_title { font-size:16px; font-weight:600; }
      .arch5_line { stroke:#333; stroke-width:1.4; marker-end:url(#arch5_arrow); fill:none; }
    </style>
  </defs>
  <rect x="35" y="75" width="145" height="60" rx="8" class="arch5_box arch5_head"/>
  <text x="60" y="111" class="arch5_text arch5_title">TerminalView</text>

  <rect x="225" y="75" width="220" height="60" rx="8" class="arch5_box"/>
  <text x="250" y="101" class="arch5_text">TerminalViewClient</text>
  <text x="250" y="121" class="arch5_text">TermuxTerminalViewClient</text>

  <rect x="490" y="75" width="150" height="60" rx="8" class="arch5_box"/>
  <text x="515" y="111" class="arch5_text">TerminalSession</text>

  <rect x="685" y="75" width="165" height="60" rx="8" class="arch5_box"/>
  <text x="710" y="111" class="arch5_text">TerminalEmulator</text>

  <rect x="490" y="155" width="150" height="45" rx="8" class="arch5_box"/>
  <text x="510" y="183" class="arch5_text">TerminalBuffer / Row</text>

  <rect x="685" y="155" width="165" height="45" rx="8" class="arch5_box"/>
  <text x="715" y="183" class="arch5_text">TerminalRenderer</text>

  <path d="M180 105 L225 105" class="arch5_line"/>
  <path d="M445 105 L490 105" class="arch5_line"/>
  <path d="M640 105 L685 105" class="arch5_line"/>
  <path d="M765 135 C765 153 665 145 620 155" class="arch5_line"/>
  <path d="M640 177 L685 177" class="arch5_line"/>
</svg>
